<?xml version="1.0" encoding="UTF-8"?>
<svg id="Layer_1" xmlns="http://www.w3.org/2000/svg" version="1.1" viewBox="0 0 784.83 191.61">
  <!-- Generator: Adobe Illustrator 29.8.3, SVG Export Plug-In . SVG Version: 2.1.1 Build 3)  -->
  <defs>
    <style>
      .st0 {
        stroke: #fff;
        stroke-miterlimit: 10;
      }

      .st0, .st1 {
        fill: #0d08c4;
      }
    </style>
  </defs>
  <g>
    <path class="st0" d="M58.11,27.62c19.43,0,34.97,15.64,34.97,35.07s-15.54,34.88-34.97,34.88-34.88-15.45-34.88-34.88,15.45-35.07,34.88-35.07ZM58.11,82.02c10.69,0,19.43-8.74,19.43-19.33s-8.74-19.53-19.43-19.53-19.33,8.84-19.33,19.53,8.74,19.33,19.33,19.33Z"/>
    <path class="st0" d="M104.56,30.43c0-.97.78-1.85,1.85-1.85h23.41c11.95,0,21.76,9.72,21.76,21.47s-9.81,21.86-21.67,21.86h-10.2v22.83c0,.97-.88,1.85-1.85,1.85h-11.46c-1.07,0-1.85-.87-1.85-1.85V30.43ZM128.94,57.73c4.18,0,7.68-3.3,7.68-7.67,0-4.08-3.5-7.19-7.68-7.19h-9.23v14.86h9.23Z"/>
    <path class="st0" d="M162.21,30.43c0-.97.78-1.85,1.85-1.85h40.22c1.07,0,1.85.87,1.85,1.85v10.59c0,.97-.78,1.85-1.85,1.85h-26.91v12.05h22.15c.97,0,1.85.87,1.85,1.85v10.59c0,1.07-.87,1.85-1.85,1.85h-22.15v13.12h26.91c1.07,0,1.85.88,1.85,1.85v10.59c0,.97-.78,1.85-1.85,1.85h-40.22c-1.07,0-1.85-.87-1.85-1.85V30.43Z"/>
    <path class="st0" d="M219.06,29.36c0-.97.88-1.75,1.85-1.75h2.43l38.76,37.31h.1V30.43c0-.97.78-1.85,1.85-1.85h11.66c.97,0,1.85.87,1.85,1.85v65.38c0,.97-.88,1.75-1.85,1.75h-1.55c-.29,0-1.07-.29-1.26-.49l-38.37-38.57h-.1v36.24c0,.97-.78,1.85-1.85,1.85h-11.56c-.97,0-1.85-.87-1.85-1.85l-.1-65.38Z"/>
    <path class="st0" d="M315.73,30.43c0-.97.78-1.85,1.85-1.85h22.64c11.46,0,20.89,7.87,20.89,18.07,0,7.48-6.7,12.92-11.27,15.35,5.15,2.14,13.02,6.9,13.02,15.84,0,10.88-9.62,18.75-21.18,18.75h-24.09c-1.07,0-1.85-.87-1.85-1.85V30.43ZM338.46,56.18c3.69,0,6.8-3.11,6.8-7s-3.11-6.61-6.8-6.61h-7.58v13.6h7.58ZM339.73,82.7c3.79,0,7-3.11,7-7.09s-4.18-6.8-7.97-6.8h-7.87v13.89h8.84Z"/>
    <path class="st0" d="M368.61,94.07l30.41-65.38c.29-.58.97-1.07,1.65-1.07h.97c.68,0,1.36.49,1.65,1.07l30.41,65.38c.58,1.26-.2,2.53-1.65,2.53h-10.78c-1.75,0-2.53-.58-3.4-2.43l-3.5-7.68h-26.43l-3.5,7.77c-.48,1.16-1.55,2.33-3.5,2.33h-10.69c-1.46,0-2.23-1.26-1.65-2.53ZM408.54,73.28l-7.38-16.03h-.1l-7.29,16.03h14.77Z"/>
    <path class="st0" d="M443.01,29.36c0-.97.88-1.75,1.85-1.75h2.43l38.76,37.31h.1V30.43c0-.97.78-1.85,1.85-1.85h11.66c.97,0,1.85.87,1.85,1.85v65.38c0,.97-.88,1.75-1.85,1.75h-1.55c-.29,0-1.07-.29-1.26-.49l-38.37-38.57h-.1v36.24c0,.97-.78,1.85-1.85,1.85h-11.56c-.97,0-1.85-.87-1.85-1.85l-.1-65.38Z"/>
    <path class="st0" d="M516.49,30.92c0-1.26.97-2.33,2.33-2.33h11.37c1.26,0,2.33,1.07,2.33,2.33v25.55l21.57-26.91c.39-.49,1.26-.97,1.85-.97h12.24c1.85,0,2.82,2.14,1.75,3.59l-22.73,28.47,24.77,32.25c1.07,1.46,0,3.59-1.85,3.59h-13.41c-.68,0-1.55-.39-1.75-.68l-22.44-30.5v28.95c0,1.26-1.07,2.33-2.33,2.33h-11.37c-1.36,0-2.33-1.07-2.33-2.33V30.92Z"/>
    <path class="st0" d="M583.17,30.43c0-.97.87-1.85,1.84-1.85h11.66c.97,0,1.85.87,1.85,1.85v64.31c0,.97-.87,1.85-1.85,1.85h-11.66c-.97,0-1.84-.87-1.84-1.85V30.43Z"/>
    <path class="st0" d="M613.7,29.36c0-.97.88-1.75,1.85-1.75h2.43l38.76,37.31h.1V30.43c0-.97.78-1.85,1.85-1.85h11.66c.97,0,1.85.87,1.85,1.85v65.38c0,.97-.87,1.75-1.85,1.75h-1.56c-.29,0-1.07-.29-1.26-.49l-38.37-38.57h-.1v36.24c0,.97-.78,1.85-1.85,1.85h-11.56c-.97,0-1.85-.87-1.85-1.85l-.1-65.38Z"/>
    <path class="st0" d="M718.2,27.71c8.16,0,17.1,3.4,23.71,9.13.88.68.97,1.85.2,2.62l-7.68,8.16c-.78.68-1.85.68-2.62.1-3.69-3.4-7.97-4.66-12.73-4.66-10.59,0-19.14,8.94-19.14,19.62s8.65,19.33,19.24,19.33c2.82,0,5.73-.39,8.65-1.55v-5.64h-6.12c-1.07,0-1.85-.78-1.85-1.75v-9.62c0-1.07.78-1.85,1.85-1.85h19.53c.97,0,1.75.88,1.75,1.85l.09,26.13c0,.49-.39,1.26-.77,1.55,0,0-10.01,6.31-24.1,6.31-19.33,0-34.88-15.35-34.88-34.78s15.54-34.97,34.88-34.97Z"/>
  </g>
  <g>
    <g>
      <path class="st1" d="M749.36,130h-3.88v-2.41h10.43v2.41h-3.88v10.03h-2.68v-10.03Z"/>
      <path class="st1" d="M757.81,127.6h2.66l3.86,7.03,3.84-7.03h2.68v12.44h-2.68v-7.75l-3.84,7.03-3.86-7.03v7.75h-2.66v-12.44Z"/>
    </g>
    <g>
      <path class="st1" d="M32.78,131.73h-9.87v-4.12h24.21v4.12h-9.91v26.01h-4.43v-26.01Z"/>
      <path class="st1" d="M72.07,143.3v14.43h-4.25v-13.68c0-3.38-2.15-5.74-5.22-5.74-3.42,0-6.27,2.41-6.27,5.35v14.08h-4.3v-30.65h4.3v11.36c1.36-2.28,4.12-3.9,7.24-3.9,5,0,8.51,3.64,8.51,8.77Z"/>
      <path class="st1" d="M95.18,151.94l2.72,2.81c-2.02,2.15-5.96,3.51-9.17,3.51-6.31,0-11.67-4.96-11.67-11.93s5.04-11.8,11.31-11.8c6.93,0,10.92,5.26,10.92,13.38h-17.85c.57,3.77,3.33,6.49,7.24,6.49,2.37,0,5.13-1.05,6.49-2.46ZM81.5,144.44h13.59c-.48-3.51-2.63-6.05-6.53-6.05-3.51,0-6.36,2.37-7.06,6.05Z"/>
      <path class="st1" d="M115.4,153.39l2.67-3.29c2.68,2.54,5.83,4.21,9.91,4.21s6.31-2.19,6.31-4.6c0-2.85-2.5-3.95-7.54-5.09-6.14-1.45-10.22-3.29-10.22-8.73,0-5.04,4.39-8.86,10.44-8.86,4.65,0,8.11,1.71,11.01,4.25l-2.54,3.33c-2.54-2.32-5.57-3.68-8.64-3.68-3.38,0-5.74,2.15-5.74,4.56,0,2.81,2.59,3.77,7.54,4.96,6.01,1.4,10.17,3.42,10.17,8.81,0,5.09-3.86,8.95-10.96,8.95-5.04,0-9.21-1.75-12.41-4.82Z"/>
      <path class="st1" d="M156.27,156.64c-1.23,1.01-2.89,1.62-4.52,1.62-3.51,0-5.96-2.54-5.96-6.18v-13.33h-3.42v-3.68h3.42v-6.23h4.25v6.23h5.35v3.68h-5.35v13.02c0,1.58,1.05,2.72,2.32,2.72.96,0,1.84-.35,2.32-.83l1.58,2.98Z"/>
      <path class="st1" d="M179.69,144.01v13.73h-4.25v-3.11c-1.67,2.37-4.78,3.64-7.54,3.64-4.82,0-8.38-2.81-8.38-7.24s4.08-7.54,9.08-7.54c2.24,0,4.65.48,6.84,1.23v-.7c0-2.85-1.32-5.88-5.83-5.88-2.24,0-4.43.88-6.4,1.89l-1.58-3.2c3.25-1.62,6.1-2.28,8.6-2.28,6.1,0,9.47,3.86,9.47,9.47ZM175.43,150.63v-3.03c-1.84-.57-3.95-.88-6.18-.88-3.03,0-5.57,1.71-5.57,4.17s2.19,3.95,5.04,3.95,5.96-1.4,6.71-4.21Z"/>
      <path class="st1" d="M206,143.3v14.43h-4.25v-13.68c0-3.38-2.15-5.74-5.22-5.74s-5.88,2.06-6.23,4.74v14.69h-4.34v-22.67h4.34v3.29c1.36-2.24,4.12-3.82,7.19-3.82,5,0,8.51,3.64,8.51,8.77Z"/>
      <path class="st1" d="M233.98,127.08v30.65h-4.3v-3.95c-1.75,2.81-4.56,4.47-8.07,4.47-5.96,0-10.44-4.91-10.44-11.88s4.47-11.84,10.44-11.84c3.51,0,6.31,1.67,8.07,4.43v-11.88h4.3ZM229.68,146.37c0-4.74-2.94-8.07-7.02-8.07s-7.1,3.33-7.1,8.07,2.94,8.11,7.1,8.11,7.02-3.38,7.02-8.11Z"/>
      <path class="st1" d="M259.5,144.01v13.73h-4.25v-3.11c-1.67,2.37-4.78,3.64-7.54,3.64-4.82,0-8.38-2.81-8.38-7.24s4.08-7.54,9.08-7.54c2.24,0,4.65.48,6.84,1.23v-.7c0-2.85-1.32-5.88-5.83-5.88-2.24,0-4.43.88-6.4,1.89l-1.58-3.2c3.25-1.62,6.1-2.28,8.6-2.28,6.1,0,9.47,3.86,9.47,9.47ZM255.25,150.63v-3.03c-1.84-.57-3.95-.88-6.18-.88-3.03,0-5.57,1.71-5.57,4.17s2.19,3.95,5.04,3.95,5.96-1.4,6.71-4.21Z"/>
      <path class="st1" d="M278.75,134.53v3.77c-4.69,0-8.02,2.59-8.42,6.53v12.89h-4.34v-22.67h4.34v4.34c1.45-2.98,4.52-4.87,8.42-4.87Z"/>
      <path class="st1" d="M304.76,127.08v30.65h-4.3v-3.95c-1.75,2.81-4.56,4.47-8.07,4.47-5.96,0-10.44-4.91-10.44-11.88s4.47-11.84,10.44-11.84c3.51,0,6.32,1.67,8.07,4.43v-11.88h4.3ZM300.46,146.37c0-4.74-2.94-8.07-7.02-8.07s-7.1,3.33-7.1,8.07,2.94,8.11,7.1,8.11,7.02-3.38,7.02-8.11Z"/>
      <path class="st1" d="M329.8,135.06h5.35v3.68h-5.35v18.99h-4.25v-18.99h-3.42v-3.68h3.42v-2.72c0-3.64,2.46-6.18,5.96-6.18,1.62,0,3.29.61,4.52,1.62l-1.58,2.89c-.48-.48-1.36-.83-2.32-.83-1.27,0-2.33,1.14-2.33,2.72v2.5Z"/>
      <path class="st1" d="M338.39,146.37c0-6.45,5.48-11.84,11.97-11.84s11.88,5.39,11.88,11.84-5.44,11.88-11.88,11.88-11.97-5.44-11.97-11.88ZM357.91,146.37c0-4.39-3.46-8.07-7.54-8.07s-7.63,3.68-7.63,8.07,3.46,8.11,7.63,8.11,7.54-3.68,7.54-8.11Z"/>
      <path class="st1" d="M380.32,134.53v3.77c-4.69,0-8.03,2.59-8.42,6.53v12.89h-4.34v-22.67h4.34v4.34c1.45-2.98,4.52-4.87,8.42-4.87Z"/>
      <path class="st1" d="M396.06,142.65c0-8.46,7.19-15.57,15.66-15.57s15.57,7.1,15.57,15.57-7.1,15.61-15.57,15.61-15.66-7.15-15.66-15.61ZM422.76,142.65c0-6.23-5.04-11.49-11.05-11.49s-11.09,5.26-11.09,11.49,5.09,11.53,11.09,11.53,11.05-5.26,11.05-11.53Z"/>
      <path class="st1" d="M455.61,146.37c0,6.97-4.47,11.88-10.44,11.88-3.51,0-6.31-1.67-8.07-4.47v11.49h-4.3v-30.22h4.3v3.9c1.75-2.76,4.56-4.43,8.07-4.43,5.96,0,10.44,4.91,10.44,11.84ZM451.23,146.37c0-4.74-2.94-8.07-7.1-8.07s-7.02,3.33-7.02,8.07,2.94,8.11,7.02,8.11,7.1-3.38,7.1-8.11Z"/>
      <path class="st1" d="M477.76,151.94l2.72,2.81c-2.02,2.15-5.96,3.51-9.17,3.51-6.32,0-11.67-4.96-11.67-11.93s5.04-11.8,11.31-11.8c6.93,0,10.92,5.26,10.92,13.38h-17.85c.57,3.77,3.33,6.49,7.24,6.49,2.37,0,5.13-1.05,6.49-2.46ZM464.07,144.44h13.59c-.48-3.51-2.63-6.05-6.53-6.05-3.51,0-6.36,2.37-7.06,6.05Z"/>
      <path class="st1" d="M506.96,143.3v14.43h-4.25v-13.68c0-3.38-2.15-5.74-5.22-5.74s-5.88,2.06-6.23,4.74v14.69h-4.34v-22.67h4.34v3.29c1.36-2.24,4.12-3.82,7.19-3.82,5,0,8.51,3.64,8.51,8.77Z"/>
      <path class="st1" d="M525.91,127.6h4.43v30.13h-4.43v-30.13Z"/>
      <path class="st1" d="M556.87,143.3v14.43h-4.25v-13.68c0-3.38-2.15-5.74-5.22-5.74s-5.88,2.06-6.23,4.74v14.69h-4.34v-22.67h4.34v3.29c1.36-2.24,4.12-3.82,7.19-3.82,5,0,8.51,3.64,8.51,8.77Z"/>
      <path class="st1" d="M583.14,143.3v14.43h-4.25v-13.68c0-3.38-2.15-5.74-5.22-5.74s-5.88,2.06-6.23,4.74v14.69h-4.34v-22.67h4.34v3.29c1.36-2.24,4.12-3.82,7.19-3.82,5,0,8.51,3.64,8.51,8.77Z"/>
      <path class="st1" d="M588.14,146.37c0-6.45,5.48-11.84,11.97-11.84s11.88,5.39,11.88,11.84-5.44,11.88-11.88,11.88-11.97-5.44-11.97-11.88ZM607.65,146.37c0-4.39-3.46-8.07-7.54-8.07s-7.63,3.68-7.63,8.07,3.46,8.11,7.63,8.11,7.54-3.68,7.54-8.11Z"/>
      <path class="st1" d="M613.97,135.06h4.69l7.06,17.63,6.93-17.63h4.69l-9.56,22.67h-4.08l-9.74-22.67Z"/>
      <path class="st1" d="M658.79,144.01v13.73h-4.25v-3.11c-1.67,2.37-4.78,3.64-7.54,3.64-4.82,0-8.38-2.81-8.38-7.24s4.08-7.54,9.08-7.54c2.24,0,4.65.48,6.84,1.23v-.7c0-2.85-1.32-5.88-5.83-5.88-2.24,0-4.43.88-6.4,1.89l-1.58-3.2c3.25-1.62,6.1-2.28,8.6-2.28,6.1,0,9.47,3.86,9.47,9.47ZM654.53,150.63v-3.03c-1.84-.57-3.95-.88-6.18-.88-3.03,0-5.57,1.71-5.57,4.17s2.19,3.95,5.04,3.95,5.96-1.4,6.71-4.21Z"/>
      <path class="st1" d="M677.25,156.64c-1.23,1.01-2.89,1.62-4.52,1.62-3.51,0-5.96-2.54-5.96-6.18v-13.33h-3.42v-3.68h3.42v-6.23h4.25v6.23h5.35v3.68h-5.35v13.02c0,1.58,1.05,2.72,2.32,2.72.96,0,1.84-.35,2.32-.83l1.58,2.98Z"/>
      <path class="st1" d="M681.2,128.66c0-1.36,1.14-2.59,2.63-2.59,1.4,0,2.59,1.23,2.59,2.59s-1.18,2.63-2.59,2.63c-1.49,0-2.63-1.23-2.63-2.63ZM681.63,135.06h4.34v22.67h-4.34v-22.67Z"/>
      <path class="st1" d="M691.02,146.37c0-6.45,5.48-11.84,11.97-11.84s11.88,5.39,11.88,11.84-5.44,11.88-11.88,11.88-11.97-5.44-11.97-11.88ZM710.53,146.37c0-4.39-3.46-8.07-7.54-8.07s-7.63,3.68-7.63,8.07,3.46,8.11,7.63,8.11,7.54-3.68,7.54-8.11Z"/>
      <path class="st1" d="M740,143.3v14.43h-4.25v-13.68c0-3.38-2.15-5.74-5.22-5.74s-5.88,2.06-6.23,4.74v14.69h-4.34v-22.67h4.34v3.29c1.36-2.24,4.12-3.82,7.19-3.82,5,0,8.51,3.64,8.51,8.77Z"/>
    </g>
  </g>
</svg>